# xmcd
#
# Track frame offsets:
#       150
#       20581
#	43567
#	61010
#	71655
#	90622
#	102715
#	119186
#	137280
#	149143
#
# Disc length: 2283 seconds
#
# Submitted via: email 1
#
# Revision: 0
# Processed by: cddbd v1.5.2PL0 Copyright (c) Steve Scherf et al.
#
DISCID=9608e90a
DTITLE=Ellen McIlwaine - Honky Tonk Angel
DYEAR=1972
DGENRE=Blues
TTITLE0=Toe Hold
TTITLE1=Weird of Hermiston
TTITLE2=Up From the Skies
TTITLE3=Losing You
TTITLE4=Ode to Billie Joe
TTITLE5=Pinebo (My Story)
TTITLE6=Can't Find My Way Home
TTITLE7=Wings of a Horse
TTITLE8=It Wasn't God Who Made Honky Tonk Angels
TTITLE9=Wade in the Water
EXTD=
EXTT0=
EXTT1=
EXTT2=
EXTT3=
EXTT4=
EXTT5=
EXTT6=
EXTT7=
EXTT8=
EXTT9=
PLAYORDER=
